<svg xmlns="http://www.w3.org/2000/svg" xmlns:xlink="http://www.w3.org/1999/xlink" width="1200" zoomAndPan="magnify" viewBox="0 0 900 299.999988" height="400" preserveAspectRatio="xMidYMid meet" version="1.0"><defs><g/><clipPath id="81672d5ae1"><rect x="0" width="452" y="0" height="93"/></clipPath><clipPath id="20a3e36327"><path d="M 173.71875 107.523438 L 237.761719 107.523438 L 237.761719 138.871094 L 173.71875 138.871094 Z M 173.71875 107.523438 " clip-rule="nonzero"/></clipPath><clipPath id="bcef62bcb0"><path d="M 224.433594 107.523438 C 231.789062 107.523438 237.753906 114.542969 237.753906 123.199219 C 237.753906 131.855469 231.789062 138.871094 224.433594 138.871094 L 187.035156 138.871094 C 179.679688 138.871094 173.71875 131.855469 173.71875 123.199219 C 173.71875 114.542969 179.679688 107.523438 187.035156 107.523438 Z M 224.433594 107.523438 " clip-rule="nonzero"/></clipPath><clipPath id="f5f2ee184e"><path d="M 0.71875 0.523438 L 64.761719 0.523438 L 64.761719 31.871094 L 0.71875 31.871094 Z M 0.71875 0.523438 " clip-rule="nonzero"/></clipPath><clipPath id="f2e4ab1964"><path d="M 51.433594 0.523438 C 58.789062 0.523438 64.753906 7.542969 64.753906 16.199219 C 64.753906 24.855469 58.789062 31.871094 51.433594 31.871094 L 14.035156 31.871094 C 6.679688 31.871094 0.71875 24.855469 0.71875 16.199219 C 0.71875 7.542969 6.679688 0.523438 14.035156 0.523438 Z M 51.433594 0.523438 " clip-rule="nonzero"/></clipPath><clipPath id="9708f1fb4b"><rect x="0" width="65" y="0" height="32"/></clipPath><clipPath id="2de3a1f026"><path d="M 173.71875 107.464844 L 205.066406 107.464844 L 205.066406 207.015625 L 173.71875 207.015625 Z M 173.71875 107.464844 " clip-rule="nonzero"/></clipPath><clipPath id="9841421faa"><path d="M 173.71875 120.832031 C 173.71875 113.476562 180.738281 107.515625 189.394531 107.515625 C 198.050781 107.515625 205.066406 113.476562 205.066406 120.832031 L 205.066406 193.699219 C 205.066406 201.054688 198.050781 207.015625 189.394531 207.015625 C 180.738281 207.015625 173.71875 201.054688 173.71875 193.699219 Z M 173.71875 120.832031 " clip-rule="nonzero"/></clipPath><clipPath id="8a5a350e68"><path d="M 0.71875 0.464844 L 32.066406 0.464844 L 32.066406 100.015625 L 0.71875 100.015625 Z M 0.71875 0.464844 " clip-rule="nonzero"/></clipPath><clipPath id="8b0d4c38e9"><path d="M 0.71875 13.832031 C 0.71875 6.476562 7.738281 0.515625 16.394531 0.515625 C 25.050781 0.515625 32.066406 6.476562 32.066406 13.832031 L 32.066406 86.699219 C 32.066406 94.054688 25.050781 100.015625 16.394531 100.015625 C 7.738281 100.015625 0.71875 94.054688 0.71875 86.699219 Z M 0.71875 13.832031 " clip-rule="nonzero"/></clipPath><clipPath id="4faf0947ff"><rect x="0" width="33" y="0" height="101"/></clipPath><clipPath id="b9a1aa760b"><path d="M 111 107 L 168 107 L 168 163 L 111 163 Z M 111 107 " clip-rule="nonzero"/></clipPath><clipPath id="4d9bb460cb"><path d="M 127.34375 101.582031 L 173.550781 145.925781 L 151.84375 168.542969 L 105.636719 124.199219 Z M 127.34375 101.582031 " clip-rule="nonzero"/></clipPath><clipPath id="02d4916627"><path d="M 163.933594 136.699219 C 169.242188 141.792969 168.683594 150.984375 162.691406 157.230469 C 156.695312 163.476562 147.535156 164.410156 142.230469 159.316406 L 115.246094 133.421875 C 109.941406 128.328125 110.496094 119.136719 116.492188 112.890625 C 122.484375 106.644531 131.644531 105.710938 136.953125 110.804688 Z M 163.933594 136.699219 " clip-rule="nonzero"/></clipPath><clipPath id="39ee295b53"><path d="M 0 0 L 57 0 L 57 56 L 0 56 Z M 0 0 " clip-rule="nonzero"/></clipPath><clipPath id="b6df82921f"><path d="M 16.34375 -5.417969 L 62.550781 38.925781 L 40.84375 61.542969 L -5.363281 17.199219 Z M 16.34375 -5.417969 " clip-rule="nonzero"/></clipPath><clipPath id="00dc70e067"><path d="M 52.933594 29.699219 C 58.242188 34.792969 57.683594 43.984375 51.691406 50.230469 C 45.695312 56.476562 36.535156 57.410156 31.230469 52.316406 L 4.246094 26.421875 C -1.058594 21.328125 -0.503906 12.136719 5.492188 5.890625 C 11.484375 -0.355469 20.644531 -1.289062 25.953125 3.804688 Z M 52.933594 29.699219 " clip-rule="nonzero"/></clipPath><clipPath id="ca80459f90"><rect x="0" width="57" y="0" height="56"/></clipPath></defs><g transform="matrix(1, 0, 0, 1, 256, 111)"><g clip-path="url(#81672d5ae1)"><g fill="#111111" fill-opacity="1"><g transform="translate(0.200437, 72.84158)"><g><path d="M 12.015625 14.71875 C 11.546875 14.71875 11.15625 14.5625 10.84375 14.25 C 10.539062 13.945312 10.390625 13.5625 10.390625 13.09375 C 10.390625 12.738281 10.441406 12.40625 10.546875 12.09375 L 16.65625 -2.484375 L 1.78125 -37.671875 C 1.625 -38.078125 1.546875 -38.359375 1.546875 -38.515625 C 1.648438 -39.035156 1.867188 -39.460938 2.203125 -39.796875 C 2.546875 -40.128906 2.945312 -40.296875 3.40625 -40.296875 L 12.625 -40.296875 C 13.71875 -40.296875 14.46875 -39.753906 14.875 -38.671875 L 23.484375 -16.65625 L 32.3125 -38.671875 C 32.832031 -39.753906 33.609375 -40.296875 34.640625 -40.296875 L 43.78125 -40.296875 C 44.25 -40.296875 44.648438 -40.128906 44.984375 -39.796875 C 45.328125 -39.460938 45.5 -39.085938 45.5 -38.671875 C 45.5 -38.304688 45.445312 -37.972656 45.34375 -37.671875 L 23.40625 13.09375 C 22.882812 14.175781 22.082031 14.71875 21 14.71875 Z M 12.015625 14.71875 "/></g></g></g><g fill="#111111" fill-opacity="1"><g transform="translate(45.221917, 72.84158)"><g><path d="M 23.796875 0.78125 C 17.285156 0.78125 12.285156 -0.726562 8.796875 -3.75 C 5.304688 -6.78125 3.40625 -11.082031 3.09375 -16.65625 C 3.039062 -17.332031 3.015625 -18.5 3.015625 -20.15625 C 3.015625 -21.800781 3.039062 -22.960938 3.09375 -23.640625 C 3.40625 -29.117188 5.359375 -33.394531 8.953125 -36.46875 C 12.546875 -39.539062 17.492188 -41.078125 23.796875 -41.078125 C 30.097656 -41.078125 35.039062 -39.539062 38.625 -36.46875 C 42.21875 -33.394531 44.171875 -29.117188 44.484375 -23.640625 C 44.585938 -22.296875 44.640625 -21.132812 44.640625 -20.15625 C 44.640625 -19.164062 44.585938 -18 44.484375 -16.65625 C 44.171875 -11.082031 42.269531 -6.78125 38.78125 -3.75 C 35.300781 -0.726562 30.304688 0.78125 23.796875 0.78125 Z M 23.796875 -8.984375 C 25.910156 -8.984375 27.484375 -9.640625 28.515625 -10.953125 C 29.546875 -12.273438 30.140625 -14.304688 30.296875 -17.046875 C 30.347656 -17.566406 30.375 -18.601562 30.375 -20.15625 C 30.375 -21.695312 30.347656 -22.726562 30.296875 -23.25 C 30.140625 -25.9375 29.546875 -27.953125 28.515625 -29.296875 C 27.484375 -30.640625 25.910156 -31.3125 23.796875 -31.3125 C 21.671875 -31.3125 20.09375 -30.640625 19.0625 -29.296875 C 18.03125 -27.953125 17.4375 -25.9375 17.28125 -23.25 L 17.203125 -20.15625 L 17.28125 -17.046875 C 17.4375 -14.304688 18.03125 -12.273438 19.0625 -10.953125 C 20.09375 -9.640625 21.671875 -8.984375 23.796875 -8.984375 Z M 23.796875 -8.984375 "/></g></g></g><g fill="#111111" fill-opacity="1"><g transform="translate(92.800697, 72.84158)"><g><path d="M 19.21875 0.78125 C 14.675781 0.78125 11.007812 -0.742188 8.21875 -3.796875 C 5.425781 -6.847656 4.03125 -11.160156 4.03125 -16.734375 L 4.03125 -38.359375 C 4.03125 -38.929688 4.222656 -39.394531 4.609375 -39.75 C 4.992188 -40.113281 5.445312 -40.296875 5.96875 -40.296875 L 16.28125 -40.296875 C 16.84375 -40.296875 17.316406 -40.113281 17.703125 -39.75 C 18.097656 -39.394531 18.296875 -38.929688 18.296875 -38.359375 L 18.296875 -17.203125 C 18.296875 -12.398438 20.4375 -10 24.71875 -10 C 26.789062 -10 28.40625 -10.628906 29.5625 -11.890625 C 30.726562 -13.160156 31.3125 -14.929688 31.3125 -17.203125 L 31.3125 -38.359375 C 31.3125 -38.929688 31.503906 -39.394531 31.890625 -39.75 C 32.273438 -40.113281 32.753906 -40.296875 33.328125 -40.296875 L 43.5625 -40.296875 C 44.125 -40.296875 44.585938 -40.113281 44.953125 -39.75 C 45.316406 -39.394531 45.5 -38.929688 45.5 -38.359375 L 45.5 -1.9375 C 45.5 -1.414062 45.316406 -0.960938 44.953125 -0.578125 C 44.585938 -0.191406 44.125 0 43.5625 0 L 34.09375 0 C 33.53125 0 33.050781 -0.175781 32.65625 -0.53125 C 32.269531 -0.894531 32.078125 -1.363281 32.078125 -1.9375 L 32.078125 -4.875 C 29.398438 -1.101562 25.113281 0.78125 19.21875 0.78125 Z M 19.21875 0.78125 "/></g></g></g><g fill="#111111" fill-opacity="1"><g transform="translate(142.704177, 72.84158)"><g><path d="M 25.578125 0 C 14.617188 0 9.140625 -5.140625 9.140625 -15.421875 L 9.140625 -29.765625 L 3.015625 -29.765625 C 2.503906 -29.765625 2.050781 -29.957031 1.65625 -30.34375 C 1.269531 -30.726562 1.078125 -31.179688 1.078125 -31.703125 L 1.078125 -38.359375 C 1.078125 -38.929688 1.269531 -39.394531 1.65625 -39.75 C 2.050781 -40.113281 2.503906 -40.296875 3.015625 -40.296875 L 9.140625 -40.296875 L 9.140625 -53.09375 C 9.140625 -53.65625 9.332031 -54.117188 9.71875 -54.484375 C 10.113281 -54.847656 10.566406 -55.03125 11.078125 -55.03125 L 20.609375 -55.03125 C 21.179688 -55.03125 21.644531 -54.847656 22 -54.484375 C 22.363281 -54.117188 22.546875 -53.65625 22.546875 -53.09375 L 22.546875 -40.296875 L 32.234375 -40.296875 C 32.804688 -40.296875 33.285156 -40.113281 33.671875 -39.75 C 34.054688 -39.394531 34.25 -38.929688 34.25 -38.359375 L 34.25 -31.703125 C 34.25 -31.128906 34.054688 -30.660156 33.671875 -30.296875 C 33.285156 -29.941406 32.804688 -29.765625 32.234375 -29.765625 L 22.546875 -29.765625 L 22.546875 -16.578125 C 22.546875 -14.773438 22.878906 -13.40625 23.546875 -12.46875 C 24.222656 -11.539062 25.3125 -11.078125 26.8125 -11.078125 L 32.9375 -11.078125 C 33.507812 -11.078125 33.972656 -10.882812 34.328125 -10.5 C 34.691406 -10.113281 34.875 -9.632812 34.875 -9.0625 L 34.875 -1.9375 C 34.875 -1.414062 34.691406 -0.960938 34.328125 -0.578125 C 33.972656 -0.191406 33.507812 0 32.9375 0 Z M 25.578125 0 "/></g></g></g><g fill="#111111" fill-opacity="1"><g transform="translate(179.434376, 72.84158)"><g><path d="M 23.328125 0.78125 C 17.023438 0.78125 12.0625 -0.910156 8.4375 -4.296875 C 4.820312 -7.679688 2.96875 -12.601562 2.875 -19.0625 L 2.875 -21.46875 C 3.070312 -27.613281 4.976562 -32.414062 8.59375 -35.875 C 12.21875 -39.34375 17.101562 -41.078125 23.25 -41.078125 C 27.695312 -41.078125 31.457031 -40.1875 34.53125 -38.40625 C 37.601562 -36.625 39.898438 -34.164062 41.421875 -31.03125 C 42.941406 -27.90625 43.703125 -24.351562 43.703125 -20.375 L 43.703125 -18.4375 C 43.703125 -17.875 43.507812 -17.398438 43.125 -17.015625 C 42.738281 -16.628906 42.257812 -16.4375 41.6875 -16.4375 L 17.125 -16.4375 L 17.125 -15.96875 C 17.175781 -13.644531 17.71875 -11.769531 18.75 -10.34375 C 19.789062 -8.925781 21.265625 -8.21875 23.171875 -8.21875 C 24.410156 -8.21875 25.40625 -8.460938 26.15625 -8.953125 C 26.90625 -9.441406 27.613281 -10.070312 28.28125 -10.84375 C 28.75 -11.363281 29.125 -11.6875 29.40625 -11.8125 C 29.695312 -11.945312 30.148438 -12.015625 30.765625 -12.015625 L 40.921875 -12.015625 C 41.390625 -12.015625 41.789062 -11.867188 42.125 -11.578125 C 42.457031 -11.296875 42.625 -10.953125 42.625 -10.546875 C 42.625 -9.203125 41.859375 -7.625 40.328125 -5.8125 C 38.804688 -4 36.585938 -2.445312 33.671875 -1.15625 C 30.753906 0.132812 27.304688 0.78125 23.328125 0.78125 Z M 29.453125 -24.328125 L 29.453125 -24.484375 C 29.453125 -26.960938 28.90625 -28.882812 27.8125 -30.25 C 26.726562 -31.625 25.207031 -32.3125 23.25 -32.3125 C 21.289062 -32.3125 19.78125 -31.625 18.71875 -30.25 C 17.65625 -28.882812 17.125 -26.960938 17.125 -24.484375 L 17.125 -24.328125 Z M 29.453125 -24.328125 "/></g></g></g><g fill="#111111" fill-opacity="1"><g transform="translate(225.69583, 72.84158)"><g><path d="M 16.578125 0.78125 C 13.847656 0.78125 11.359375 0.25 9.109375 -0.8125 C 6.859375 -1.875 5.097656 -3.332031 3.828125 -5.1875 C 2.566406 -7.050781 1.9375 -9.09375 1.9375 -11.3125 C 1.9375 -14.820312 3.394531 -17.675781 6.3125 -19.875 C 9.226562 -22.070312 13.25 -23.582031 18.375 -24.40625 L 27.984375 -25.890625 L 27.984375 -26.8125 C 27.984375 -28.726562 27.59375 -30.125 26.8125 -31 C 26.039062 -31.875 24.722656 -32.3125 22.859375 -32.3125 C 21.828125 -32.3125 20.960938 -32.128906 20.265625 -31.765625 C 19.566406 -31.410156 18.78125 -30.867188 17.90625 -30.140625 C 17.226562 -29.578125 16.632812 -29.164062 16.125 -28.90625 C 15.914062 -28.539062 15.65625 -28.359375 15.34375 -28.359375 L 6.359375 -28.359375 C 5.835938 -28.359375 5.410156 -28.523438 5.078125 -28.859375 C 4.742188 -29.203125 4.601562 -29.601562 4.65625 -30.0625 C 4.707031 -31.457031 5.398438 -33.019531 6.734375 -34.75 C 8.078125 -36.488281 10.117188 -37.976562 12.859375 -39.21875 C 15.597656 -40.457031 18.984375 -41.078125 23.015625 -41.078125 C 29.421875 -41.078125 34.171875 -39.664062 37.265625 -36.84375 C 40.367188 -34.03125 41.921875 -30.222656 41.921875 -25.421875 L 41.921875 -1.9375 C 41.921875 -1.414062 41.738281 -0.960938 41.375 -0.578125 C 41.019531 -0.191406 40.554688 0 39.984375 0 L 30.453125 0 C 29.941406 0 29.488281 -0.191406 29.09375 -0.578125 C 28.707031 -0.960938 28.515625 -1.414062 28.515625 -1.9375 L 28.515625 -4.65625 C 27.378906 -3.050781 25.800781 -1.742188 23.78125 -0.734375 C 21.769531 0.273438 19.367188 0.78125 16.578125 0.78125 Z M 20.453125 -8.375 C 22.734375 -8.375 24.582031 -9.117188 26 -10.609375 C 27.414062 -12.109375 28.125 -14.28125 28.125 -17.125 L 28.125 -18.0625 L 21.703125 -16.96875 C 17.359375 -16.144531 15.1875 -14.597656 15.1875 -12.328125 C 15.1875 -11.140625 15.691406 -10.179688 16.703125 -9.453125 C 17.710938 -8.734375 18.960938 -8.375 20.453125 -8.375 Z M 20.453125 -8.375 "/></g></g></g><g fill="#111111" fill-opacity="1"><g transform="translate(271.647321, 72.84158)"><g><path d="M 23.171875 0.78125 C 17.285156 0.78125 12.519531 -0.78125 8.875 -3.90625 C 5.226562 -7.039062 3.273438 -11.394531 3.015625 -16.96875 L 2.9375 -20.078125 L 3.015625 -23.25 C 3.222656 -28.832031 5.160156 -33.195312 8.828125 -36.34375 C 12.503906 -39.5 17.285156 -41.078125 23.171875 -41.078125 C 27.671875 -41.078125 31.441406 -40.273438 34.484375 -38.671875 C 37.535156 -37.066406 39.8125 -35.164062 41.3125 -32.96875 C 42.8125 -30.78125 43.609375 -28.78125 43.703125 -26.96875 C 43.753906 -26.40625 43.570312 -25.925781 43.15625 -25.53125 C 42.75 -25.144531 42.257812 -24.953125 41.6875 -24.953125 L 31.3125 -24.953125 C 30.738281 -24.953125 30.296875 -25.082031 29.984375 -25.34375 C 29.679688 -25.601562 29.398438 -26.015625 29.140625 -26.578125 C 28.566406 -28.023438 27.828125 -29.082031 26.921875 -29.75 C 26.023438 -30.425781 24.878906 -30.765625 23.484375 -30.765625 C 19.503906 -30.765625 17.4375 -28.128906 17.28125 -22.859375 L 17.203125 -19.921875 L 17.28125 -17.359375 C 17.332031 -14.671875 17.875 -12.691406 18.90625 -11.421875 C 19.9375 -10.160156 21.460938 -9.53125 23.484375 -9.53125 C 24.984375 -9.53125 26.15625 -9.851562 27 -10.5 C 27.851562 -11.144531 28.566406 -12.21875 29.140625 -13.71875 C 29.398438 -14.28125 29.679688 -14.691406 29.984375 -14.953125 C 30.296875 -15.210938 30.738281 -15.34375 31.3125 -15.34375 L 41.6875 -15.34375 C 42.207031 -15.34375 42.671875 -15.160156 43.078125 -14.796875 C 43.492188 -14.441406 43.703125 -14.003906 43.703125 -13.484375 C 43.703125 -11.878906 42.992188 -9.953125 41.578125 -7.703125 C 40.160156 -5.460938 37.898438 -3.488281 34.796875 -1.78125 C 31.691406 -0.0703125 27.816406 0.78125 23.171875 0.78125 Z M 23.171875 0.78125 "/></g></g></g><g fill="#111111" fill-opacity="1"><g transform="translate(317.598813, 72.84158)"><g><path d="M 6.4375 0 C 5.863281 0 5.382812 -0.175781 5 -0.53125 C 4.613281 -0.894531 4.421875 -1.363281 4.421875 -1.9375 L 4.421875 -53.09375 C 4.421875 -53.65625 4.613281 -54.117188 5 -54.484375 C 5.382812 -54.847656 5.863281 -55.03125 6.4375 -55.03125 L 16.890625 -55.03125 C 17.460938 -55.03125 17.941406 -54.847656 18.328125 -54.484375 C 18.710938 -54.117188 18.90625 -53.65625 18.90625 -53.09375 L 18.90625 -35.8125 C 21.90625 -39.320312 25.960938 -41.078125 31.078125 -41.078125 C 34.023438 -41.078125 36.6875 -40.40625 39.0625 -39.0625 C 41.4375 -37.71875 43.296875 -35.726562 44.640625 -33.09375 C 45.984375 -30.457031 46.65625 -27.28125 46.65625 -23.5625 L 46.65625 -1.9375 C 46.65625 -1.363281 46.460938 -0.894531 46.078125 -0.53125 C 45.691406 -0.175781 45.210938 0 44.640625 0 L 34.09375 0 C 33.582031 0 33.128906 -0.191406 32.734375 -0.578125 C 32.347656 -0.960938 32.15625 -1.414062 32.15625 -1.9375 L 32.15625 -23.09375 C 32.15625 -25.363281 31.585938 -27.128906 30.453125 -28.390625 C 29.316406 -29.660156 27.691406 -30.296875 25.578125 -30.296875 C 23.503906 -30.296875 21.875 -29.660156 20.6875 -28.390625 C 19.5 -27.128906 18.90625 -25.363281 18.90625 -23.09375 L 18.90625 -1.9375 C 18.90625 -1.363281 18.710938 -0.894531 18.328125 -0.53125 C 17.941406 -0.175781 17.460938 0 16.890625 0 Z M 6.4375 0 "/></g></g></g><g fill="#111111" fill-opacity="1"><g transform="translate(368.277208, 72.84158)"><g><path d="M 23.328125 0.78125 C 17.023438 0.78125 12.0625 -0.910156 8.4375 -4.296875 C 4.820312 -7.679688 2.96875 -12.601562 2.875 -19.0625 L 2.875 -21.46875 C 3.070312 -27.613281 4.976562 -32.414062 8.59375 -35.875 C 12.21875 -39.34375 17.101562 -41.078125 23.25 -41.078125 C 27.695312 -41.078125 31.457031 -40.1875 34.53125 -38.40625 C 37.601562 -36.625 39.898438 -34.164062 41.421875 -31.03125 C 42.941406 -27.90625 43.703125 -24.351562 43.703125 -20.375 L 43.703125 -18.4375 C 43.703125 -17.875 43.507812 -17.398438 43.125 -17.015625 C 42.738281 -16.628906 42.257812 -16.4375 41.6875 -16.4375 L 17.125 -16.4375 L 17.125 -15.96875 C 17.175781 -13.644531 17.71875 -11.769531 18.75 -10.34375 C 19.789062 -8.925781 21.265625 -8.21875 23.171875 -8.21875 C 24.410156 -8.21875 25.40625 -8.460938 26.15625 -8.953125 C 26.90625 -9.441406 27.613281 -10.070312 28.28125 -10.84375 C 28.75 -11.363281 29.125 -11.6875 29.40625 -11.8125 C 29.695312 -11.945312 30.148438 -12.015625 30.765625 -12.015625 L 40.921875 -12.015625 C 41.390625 -12.015625 41.789062 -11.867188 42.125 -11.578125 C 42.457031 -11.296875 42.625 -10.953125 42.625 -10.546875 C 42.625 -9.203125 41.859375 -7.625 40.328125 -5.8125 C 38.804688 -4 36.585938 -2.445312 33.671875 -1.15625 C 30.753906 0.132812 27.304688 0.78125 23.328125 0.78125 Z M 29.453125 -24.328125 L 29.453125 -24.484375 C 29.453125 -26.960938 28.90625 -28.882812 27.8125 -30.25 C 26.726562 -31.625 25.207031 -32.3125 23.25 -32.3125 C 21.289062 -32.3125 19.78125 -31.625 18.71875 -30.25 C 17.65625 -28.882812 17.125 -26.960938 17.125 -24.484375 L 17.125 -24.328125 Z M 29.453125 -24.328125 "/></g></g></g><g fill="#111111" fill-opacity="1"><g transform="translate(414.538662, 72.84158)"><g><path d="M 6.359375 0 C 5.835938 0 5.382812 -0.191406 5 -0.578125 C 4.613281 -0.960938 4.421875 -1.414062 4.421875 -1.9375 L 4.421875 -38.28125 C 4.421875 -38.851562 4.597656 -39.332031 4.953125 -39.71875 C 5.316406 -40.101562 5.785156 -40.296875 6.359375 -40.296875 L 15.8125 -40.296875 C 16.375 -40.296875 16.847656 -40.101562 17.234375 -39.71875 C 17.628906 -39.332031 17.828125 -38.851562 17.828125 -38.28125 L 17.828125 -35.34375 C 19.273438 -36.945312 20.96875 -38.171875 22.90625 -39.015625 C 24.84375 -39.867188 27 -40.296875 29.375 -40.296875 L 32.859375 -40.296875 C 33.429688 -40.296875 33.894531 -40.113281 34.25 -39.75 C 34.613281 -39.394531 34.796875 -38.929688 34.796875 -38.359375 L 34.796875 -29.921875 C 34.796875 -29.398438 34.613281 -28.945312 34.25 -28.5625 C 33.894531 -28.175781 33.429688 -27.984375 32.859375 -27.984375 L 25.03125 -27.984375 C 22.96875 -27.984375 21.378906 -27.410156 20.265625 -26.265625 C 19.148438 -25.128906 18.59375 -23.53125 18.59375 -21.46875 L 18.59375 -1.9375 C 18.59375 -1.363281 18.398438 -0.894531 18.015625 -0.53125 C 17.628906 -0.175781 17.148438 0 16.578125 0 Z M 6.359375 0 "/></g></g></g></g></g><g clip-path="url(#20a3e36327)"><g clip-path="url(#bcef62bcb0)"><g transform="matrix(1, 0, 0, 1, 173, 107)"><g clip-path="url(#9708f1fb4b)"><g clip-path="url(#f5f2ee184e)"><g clip-path="url(#f2e4ab1964)"><path fill="#e67e22" d="M 0.71875 0.523438 L 64.761719 0.523438 L 64.761719 31.871094 L 0.71875 31.871094 Z M 0.71875 0.523438 " fill-opacity="1" fill-rule="nonzero"/></g></g></g></g></g></g><g clip-path="url(#2de3a1f026)"><g clip-path="url(#9841421faa)"><g transform="matrix(1, 0, 0, 1, 173, 107)"><g clip-path="url(#4faf0947ff)"><g clip-path="url(#8a5a350e68)"><g clip-path="url(#8b0d4c38e9)"><path fill="#e67e22" d="M 0.71875 100.015625 L 0.71875 0.464844 L 32.066406 0.464844 L 32.066406 100.015625 Z M 0.71875 100.015625 " fill-opacity="1" fill-rule="nonzero"/></g></g></g></g></g></g><g clip-path="url(#b9a1aa760b)"><g clip-path="url(#4d9bb460cb)"><g clip-path="url(#02d4916627)"><g transform="matrix(1, 0, 0, 1, 111, 107)"><g clip-path="url(#ca80459f90)"><g clip-path="url(#39ee295b53)"><g clip-path="url(#b6df82921f)"><g clip-path="url(#00dc70e067)"><path fill="#e67e22" d="M 16.34375 -5.417969 L 62.550781 38.925781 L 40.84375 61.542969 L -5.363281 17.199219 Z M 16.34375 -5.417969 " fill-opacity="1" fill-rule="nonzero"/></g></g></g></g></g></g></g></g></svg>